{"asset":{"version":"2.0","generator":"THREE.GLTFExporter"},"scenes":[{"nodes":[0],"name":"AuxScene"}],"scene":0,"nodes":[{"mesh":0}],"bufferViews":[{"buffer":0,"byteOffset":0,"byteLength":11808,"target":34962,"byteStride":12},{"buffer":0,"byteOffset":11808,"byteLength":11808,"target":34962,"byteStride":12}],"buffers":[{"byteLength":23616,"uri":"data:application/octet-stream;base64,"}],"accessors":[{"bufferView":0,"componentType":5126,"count":984,"max":[100.61190795898438,2.5959699153900146,102.61190795898438],"min":[-100.68809509277344,1.1959689855575562,-98.68809509277344],"type":"VEC3"},{"bufferView":1,"componentType":5126,"count":984,"max":[0.9087047576904297,1,0.5817221999168396],"min":[-0.5661205053329468,0.3569941818714142,-0.742782711982727],"type":"VEC3"}],"materials":[{"pbrMetallicRoughness":{"baseColorFactor":[0.5019607843137255,0.5019607843137255,0.5019607843137255,1],"metallicFactor":0,"roughnessFactor":1}}],"meshes":[{"primitives":[{"mode":4,"attributes":{"POSITION":0,"NORMAL":1},"material":0}]}]}